<?xml version="1.0" encoding="utf-8"?>
<!-- Generator: Adobe Illustrator 21.0.2, SVG Export Plug-In . SVG Version: 6.00 Build 0)  -->
<svg version="1.1" id="Ebene_1" xmlns="http://www.w3.org/2000/svg" xmlns:xlink="http://www.w3.org/1999/xlink" x="0px" y="0px"
	 width="60.6px" height="23px" viewBox="0 0 60.6 23" style="enable-background:new 0 0 60.6 23;" xml:space="preserve">
<style type="text/css">
	.st0{fill:none;}
	.st1{fill:#FFFFFF;}
	.st2{fill:#646464;}
	.st3{fill:#1363A1;}
</style>
<g>
	<g>
		<path class="st0" d="M10.3,23C4.6,23,0,17.9,0,11.5C0,5.2,4.6,0,10.3,0H20c5.7,0,10.3,5.2,10.3,11.5C30.4,17.9,25.7,23,20,23H10.3
			z"/>
	</g>
	<g>
		<path class="st0" d="M40.7,23c-5.7,0-10.4-5.1-10.4-11.5C30.4,5.2,35,0,40.7,0h9.5c5.7,0,10.3,5.2,10.3,11.5
			c0,6.4-4.6,11.5-10.3,11.5H40.7z"/>
	</g>
	<path class="st2" d="M23.9,11c0-2.9,1.9-5.4,4.5-6.3C26.5,1.9,23.5,0,20.1,0h-9.7C4.7,0,0,5.2,0,11.5C0,17.8,4.7,23,10.4,23h9.7
		c3.8,0,7.1-2.3,8.9-5.6C26,16.7,23.9,14.1,23.9,11z M13,1.1c0.8,0,1.5,0.6,1.5,1.4C14.5,3.4,13.8,4,13,4c-0.8,0-1.5-0.6-1.5-1.4
		C11.6,1.8,12.2,1.1,13,1.1z M17.9,15.2L17.9,15.2c-0.6,1.8-2,3.4-3.9,4c-3.1,0.9-6.3-0.8-7.3-4l0,0c-0.3-0.9-0.4-1.8-0.2-2.8
		C6.7,10.3,8,8.6,9.7,7.8h0c0.1-0.1,0.3-0.1,0.5-0.1c0.5,0.1,0.8,0.5,0.7,1c0,0.3-0.2,0.6-0.5,0.7l0,0c-1.1,0.6-2,1.8-2.2,3.2
		c-0.1,0.7,0,1.3,0.1,1.9l0,0C8.4,15.1,8.7,15.6,9,16c0,0,0,0,0.1,0.1c0.1,0.1,0.1,0.1,0.2,0.2c0.1,0.1,0.1,0.1,0.2,0.2c0,0,0,0,0,0
		c0.6,0.6,1.5,1,2.3,1.1h0l0,0c0.6,0.1,1.1,0,1.7-0.1c1.3-0.4,2.3-1.4,2.8-2.7l0,0c0.1-0.3,0.3-0.5,0.6-0.6c0.4-0.1,0.9,0.1,1,0.6
		C17.9,14.8,17.9,15,17.9,15.2z M23.5,16.6l-1.7,0.9c0,0,0,0,0,0c0,0,0,0,0,0c-0.1,0-0.2,0-0.3,0c0,0,0,0,0,0c0,0-0.1,0-0.1,0
		c-0.2,0-0.4-0.2-0.5-0.3l-2.3-3.5h-5.3c-0.1,0-0.1,0-0.2,0c-0.5-0.1-0.9-0.5-0.9-1v-6c0-0.6,0.5-1,1-1c0.6,0,1,0.5,1,1v1.9h3.2
		c0.5,0,0.8,0.4,0.8,0.9c0,0.5-0.4,0.9-0.8,0.9h-3.2v1.5h4.6c0.5,0,0.7,0.3,0.7,0.5l2.4,3.7l1-0.5c0.3-0.2,0.7-0.1,0.9,0.2
		C23.9,16,23.8,16.4,23.5,16.6z"/>
	<g>
		<path class="st2" d="M42,17.7h-1.3c-0.1,0-0.1,0.1-0.1,0.1v1.3c0,0.1,0.1,0.1,0.1,0.1H42c0.1,0,0.1-0.1,0.1-0.1v-1.3
			C42.2,17.8,42.1,17.7,42,17.7z"/>
		<path class="st2" d="M44.4,17.2h1.3c0.1,0,0.1-0.1,0.1-0.1v-1.3c0-0.1-0.1-0.1-0.1-0.1h-1.3c-0.1,0-0.1,0.1-0.1,0.1v1.3
			C44.3,17.2,44.3,17.2,44.4,17.2z"/>
		<path class="st2" d="M42,17.2h1.3c0.1,0,0.1-0.1,0.1-0.1v-1.3c0-0.1-0.1-0.1-0.1-0.1H42c-0.1,0-0.1,0.1-0.1,0.1v1.3
			C41.9,17.2,42,17.2,42,17.2z"/>
		<path class="st2" d="M41.7,12.3h9c0.1,0,0.1-0.1,0.1-0.1V4.4c0-0.1,0-0.1-0.1-0.1h-9c-0.1,0-0.1,0.1-0.1,0.1v7.8
			C41.6,12.2,41.6,12.3,41.7,12.3z"/>
		<path class="st2" d="M46.8,17.2h1.3c0.1,0,0.1-0.1,0.1-0.1v-1.3c0-0.1-0.1-0.1-0.1-0.1h-1.3c-0.1,0-0.1,0.1-0.1,0.1v1.3
			C46.7,17.2,46.7,17.2,46.8,17.2z"/>
		<path class="st2" d="M49.2,17.2h1.3c0.1,0,0.1-0.1,0.1-0.1v-1.3c0-0.1-0.1-0.1-0.1-0.1h-1.3c-0.1,0-0.1,0.1-0.1,0.1v1.3
			C49.1,17.2,49.1,17.2,49.2,17.2z"/>
		<path class="st2" d="M50.3,0h-9.5c-3.4,0-6.4,1.8-8.3,4.7c2.7,0.8,4.6,3.3,4.6,6.3c0,3.2-2.2,5.8-5.2,6.4c1.8,3.3,5.1,5.6,8.9,5.6
			h9.5c5.7,0,10.3-5.1,10.3-11.5C60.6,5.2,56,0,50.3,0z M39.9,2.7c0-0.1,0.1-0.1,0.1-0.1h12.3c0.1,0,0.1,0.1,0.1,0.1v11.5
			c0,0.1-0.1,0.1-0.1,0.1H40.1c-0.1,0-0.1-0.1-0.1-0.1V2.7z M52.7,19.8c0,0.1-0.1,0.2-0.2,0.2H39.8c-0.1,0-0.2-0.1-0.2-0.2v-4.7
			c0-0.1,0.1-0.2,0.2-0.2h12.8c0.1,0,0.2,0.1,0.2,0.2V19.8z"/>
		<path class="st2" d="M51.6,17.7h-1.3c-0.1,0-0.1,0.1-0.1,0.1v1.3c0,0.1,0.1,0.1,0.1,0.1h1.3c0.1,0,0.1-0.1,0.1-0.1v-1.3
			C51.7,17.8,51.7,17.7,51.6,17.7z"/>
		<path class="st2" d="M44.4,17.7h-1.3c-0.1,0-0.1,0.1-0.1,0.1v1.3c0,0.1,0.1,0.1,0.1,0.1h1.3c0.1,0,0.1-0.1,0.1-0.1v-1.3
			C44.6,17.8,44.5,17.7,44.4,17.7z"/>
		<path class="st2" d="M49.2,17.7h-1.3c-0.1,0-0.1,0.1-0.1,0.1v1.3c0,0.1,0.1,0.1,0.1,0.1h1.3c0.1,0,0.1-0.1,0.1-0.1v-1.3
			C49.3,17.8,49.3,17.7,49.2,17.7z"/>
		<path class="st2" d="M46.8,17.7h-1.3c-0.1,0-0.1,0.1-0.1,0.1v1.3c0,0.1,0.1,0.1,0.1,0.1h1.3c0.1,0,0.1-0.1,0.1-0.1v-1.3
			C47,17.8,46.9,17.7,46.8,17.7z"/>
	</g>
	<g>
		<path class="st2" d="M29.4,15.4c-0.1,0.1-0.4,0.1-0.5,0l-1-1c-0.1-0.1-0.1-0.4,0-0.5l3.1-3.1l-3.1-3.1c-0.1-0.1-0.1-0.4,0-0.5l1-1
			c0.1-0.1,0.4-0.1,0.5,0l4.3,4.3c0.1,0.1,0.1,0.4,0,0.5L29.4,15.4z"/>
	</g>
	<g>
		<path class="st2" d="M57.8,22.8v-1.3h-0.5v-0.3h1.2v0.3h-0.5v1.3H57.8z"/>
		<path class="st2" d="M58.8,22.8v-1.5h0.5l0.3,1l0.3-1h0.5v1.5H60v-1.2l-0.3,1.2h-0.3l-0.3-1.2v1.2H58.8z"/>
	</g>
</g>
</svg>
