<?xml version="1.0" encoding="utf-8"?>
<!-- Generator: Adobe Illustrator 20.1.0, SVG Export Plug-In . SVG Version: 6.00 Build 0)  -->
<svg version="1.1" id="Layer_1" xmlns="http://www.w3.org/2000/svg" xmlns:xlink="http://www.w3.org/1999/xlink" x="0px" y="0px"
	 viewBox="0 0 140 24" style="enable-background:new 0 0 140 24;" xml:space="preserve">
<style type="text/css">
	.st0{fill:#E2001A;}
	.st1{fill:#FFFFFF;}
</style>
<g>
	<g>
		<path d="M103.6,0.8v6.1c1.4-1.4,3.5-2.1,5.6-2.1c2.4,0,4.3,0.8,5.8,2.2c1.5,1.5,2.2,3.6,2.2,6.2v10h-3.2v-10
			c0-1.6-0.3-2.9-1.1-3.8c-0.9-1-2.2-1.5-3.7-1.5c-1.6,0-3,0.5-4,1.5c-1,1-1.6,2.4-1.6,4.1v9.8h-3.2V0.8H103.6z"/>
		<path d="M73.2,23.1c-1.5,0-2.8-0.6-3.7-1.5c-0.9-0.9-1.4-2.2-1.4-3.6V0.8h3.2v4.5H77v3h-5.7v9.6c0,0.5,0.1,1,0.4,1.4
			c0.4,0.5,0.9,0.7,1.5,0.7H77v3H73.2z"/>
		<path d="M33.6,5.2v12.3c0,0.9,0.3,1.7,0.8,2.3c0.5,0.5,1.3,0.8,2.1,0.8c0.8,0,1.6-0.3,2.1-0.8c0.5-0.5,0.8-1.3,0.8-2.3V5.2h3.2
			v12.3c0,1.8-0.6,3.3-1.7,4.4c-1.1,1.1-2.6,1.7-4.4,1.7c-1.7,0-3.3-0.6-4.5-1.8c-1.2,1.2-2.7,1.8-4.5,1.8c-1.7,0-3.3-0.6-4.4-1.7
			c-1.1-1.1-1.7-2.6-1.7-4.4V5.2h3.2v12.3c0,0.9,0.3,1.7,0.8,2.3c0.5,0.5,1.3,0.8,2.1,0.8c0.8,0,1.6-0.3,2.1-0.8
			c0.5-0.5,0.8-1.3,0.8-2.3V5.2H33.6z"/>
		<path d="M0.5,23.1v-3h11.8c0.6,0,1.2-0.2,1.6-0.6c0.4-0.4,0.7-1,0.7-1.7c0-0.7-0.3-1.3-0.7-1.7c-0.4-0.4-1-0.6-1.6-0.6h-7
			c-1.4,0-2.7-0.5-3.7-1.4c-1-0.9-1.7-2.2-1.7-3.7c0-1.5,0.6-2.8,1.6-3.7c1-0.9,2.3-1.4,3.7-1.4H17v3H5.4c-0.6,0-1.1,0.2-1.5,0.6
			c-0.4,0.4-0.6,0.9-0.6,1.5c0,0.6,0.3,1.1,0.6,1.5c0.4,0.4,0.9,0.5,1.5,0.5h7c1.6,0,2.9,0.5,3.9,1.5c1,1,1.6,2.3,1.6,3.9
			c0,1.6-0.6,2.9-1.6,3.9c-1,0.9-2.3,1.5-3.9,1.5H0.5z"/>
		<path d="M58.2,23.1c-1,0.4-2,0.5-3,0.5c-2.5,0-4.9-1-6.5-2.6c-1.7-1.7-2.6-4-2.6-6.6c0-2.5,0.9-4.9,2.6-6.6
			c1.7-1.7,3.9-2.6,6.5-2.6H63v17.9h-3.2V8.3h-4.6c-1.8,0-3.3,0.7-4.3,1.8c-1,1.1-1.6,2.7-1.6,4.4c0,1.7,0.5,3.2,1.6,4.4
			c1.1,1.1,2.6,1.8,4.3,1.8c1.1,0,2.1-0.3,3-0.7V23.1z"/>
		<path d="M82.5,14.1c0,1.8,0.6,3.4,1.8,4.5c1.1,1.2,2.7,1.9,4.5,1.9c1.2,0,2.3-0.3,3.2-0.9c1-0.6,1.7-1.4,2.2-2.5l2.7,1.6
			c-0.8,1.5-2,2.7-3.4,3.6c-1.4,0.8-3.1,1.2-4.8,1.2c-2.6,0-5-1-6.7-2.7c-1.7-1.7-2.7-4.1-2.7-6.7s1-5,2.7-6.7
			c1.7-1.7,4.1-2.8,6.7-2.8c1.7,0,3.4,0.4,4.8,1.2C95,6.8,96.1,8,97,9.5L94.2,11c-0.6-1-1.3-1.9-2.2-2.5c-0.9-0.6-2-0.9-3.2-0.9
			c-1.7,0-3.4,0.7-4.5,1.9C83.1,10.8,82.5,12.4,82.5,14.1z"/>
		<path d="M115.1,2.4c0-1.1,0.9-2,2-2c1.1,0,2,0.9,2,2c0,1.1-0.9,2-2,2C116,4.4,115.1,3.5,115.1,2.4L115.1,2.4z M115.5,2.4
			c0,0.9,0.7,1.6,1.6,1.6c0.9,0,1.6-0.7,1.6-1.6c0-0.9-0.7-1.6-1.6-1.6C116.2,0.8,115.5,1.5,115.5,2.4L115.5,2.4z M117,2.5h-0.3v0.9
			h-0.4V1.3h1.1c0.4,0,0.6,0.2,0.6,0.6c0,0.4-0.2,0.6-0.6,0.6l0.6,0.9h-0.4L117,2.5z M117.4,2.2c0.2,0,0.3-0.1,0.3-0.3
			c0-0.2-0.1-0.3-0.3-0.3h-0.7v0.6H117.4z"/>
	</g>
	<g>
		<rect x="122.1" y="5.2" class="st0" width="17.9" height="17.9"/>
		<path class="st1" d="M133.2,12V7h-4.3v5h-5v4.3h5v5h4.3v-5h5V12H133.2z"/>
	</g>
</g>
</svg>
